<?xml version="1.0" encoding="UTF-8" standalone="no"?> <svg xmlns="http://www.w3.org/2000/svg" xmlns:xlink="http://www.w3.org/1999/xlink" viewBox="0 0 64 64"><defs><style>.cls-1{fill:url(#linear-gradient);}.cls-2{fill:url(#linear-gradient-2);}.cls-3{fill:url(#linear-gradient-3);}.cls-4{fill:url(#linear-gradient-4);}</style><linearGradient id="linear-gradient" x1="6.03" y1="10.41" x2="44.56" y2="10.41" gradientUnits="userSpaceOnUse"><stop offset="0" stop-color="#17a6d7"/><stop offset="1" stop-color="#9d31fe"/></linearGradient><linearGradient id="linear-gradient-2" x1="16.01" y1="21.41" x2="61.63" y2="21.41" xlink:href="#linear-gradient"/><linearGradient id="linear-gradient-3" x1="6" y1="53.56" x2="44.62" y2="53.56" xlink:href="#linear-gradient"/><linearGradient id="linear-gradient-4" x1="23.01" y1="42.57" x2="61.63" y2="42.57" xlink:href="#linear-gradient"/></defs><g id="Layer_10" data-name="Layer 10"><path class="cls-1" d="M8,18.82H36.21c11.14-.42,11.14-16.4,0-16.82a8.42,8.42,0,0,0-8.41,8.41,2,2,0,0,0,4,0c.18-5.82,8.64-5.83,8.82,0a4.42,4.42,0,0,1-4.41,4.41H8A2,2,0,0,0,8,18.82Z"/><path class="cls-2" d="M46.81,23.41a2,2,0,0,0,2-2,4.41,4.41,0,1,1,4.41,4.4H18a2,2,0,0,0,0,4H53.22a8.41,8.41,0,1,0-8.41-8.4A2,2,0,0,0,46.81,23.41Z"/><path class="cls-3" d="M36.21,45.18H8a2,2,0,0,0,0,4H36.21a4.41,4.41,0,1,1-4.41,4.41,2,2,0,0,0-4,0c.42,11.14,16.4,11.14,16.82,0A8.42,8.42,0,0,0,36.21,45.18Z"/><path class="cls-4" d="M53.22,34.19H25a2,2,0,0,0,0,4H53.22a4.41,4.41,0,1,1-4.41,4.4,2,2,0,0,0-4,0c.42,11.14,16.4,11.14,16.82,0A8.41,8.41,0,0,0,53.22,34.19Z"/></g></svg>