<?xml version="1.0" encoding="UTF-8" standalone="no"?> <svg width="64" height="64" viewBox="0 0 64 64" fill="none" xmlns="http://www.w3.org/2000/svg">
<path d="M50 11C49.4403 11.0044 48.8817 11.0512 48.329 11.14C47.0743 8.69772 45.1728 6.64706 42.832 5.21192C40.4912 3.77678 37.8011 3.01232 35.0554 3.002C32.3097 2.99168 29.6139 3.7359 27.2624 5.15341C24.9109 6.57091 22.994 8.60722 21.721 11.04C21.481 11.021 21.243 11 21 11C18.6033 11.0018 16.2728 11.7862 14.3628 13.234C12.4529 14.6819 11.0681 16.7139 10.419 19.021C10.28 19.013 10.142 19 10 19C8.8566 18.9983 7.73018 19.2766 6.71921 19.8108C5.70825 20.3449 4.84352 21.1186 4.20062 22.0642C3.55772 23.0097 3.15624 24.0983 3.03126 25.2349C2.90628 26.3714 3.06162 27.5213 3.48369 28.584C3.90576 29.6466 4.58172 30.5897 5.45246 31.3308C6.3232 32.0718 7.36222 32.5883 8.47868 32.8351C9.59514 33.0818 10.755 33.0513 11.857 32.7463C12.959 32.4412 13.9694 31.8708 14.8 31.085C16.6634 32.3595 18.8746 33.028 21.132 32.9991C23.3893 32.9703 25.5828 32.2457 27.413 30.924C29.8051 32.338 32.5446 33.0558 35.3227 32.9966C38.1009 32.9374 40.8073 32.1036 43.137 30.589C44.5096 31.6873 46.1255 32.4406 47.8492 32.7858C49.5729 33.131 51.3542 33.0581 53.0439 32.5732C54.7336 32.0882 56.2825 31.2053 57.5607 29.9985C58.839 28.7917 59.8094 27.2962 60.3907 25.6371C60.9719 23.9781 61.1471 22.2039 60.9015 20.4632C60.6558 18.7225 59.9966 17.066 58.979 15.6326C57.9615 14.1991 56.6151 13.0304 55.0529 12.2244C53.4906 11.4184 51.7579 10.9985 50 11V11Z" fill="#00B4D8"/>
<path d="M61 22.0001C61.0015 24.0714 60.4177 26.101 59.3158 27.8549C58.214 29.6089 56.639 31.0159 54.7724 31.9136C52.9057 32.8114 50.8234 33.1635 48.7653 32.9293C46.7073 32.6952 44.7573 31.8843 43.14 30.5901C40.8091 32.1049 38.1014 32.9385 35.322 32.9968C32.5427 33.0551 29.8024 32.3358 27.41 30.9201C25.5814 32.2443 23.388 32.9705 21.1304 32.9992C18.8728 33.0278 16.6616 32.3575 14.8 31.0801C13.5778 32.2251 11.9855 32.894 10.3122 32.9653C8.63894 33.0366 6.99554 32.5055 5.68033 31.4686C4.36513 30.4317 3.46528 28.9576 3.14413 27.3139C2.82298 25.6701 3.10182 23.9657 3.93002 22.5101C4.76196 23.9394 6.07185 25.0292 7.62874 25.5872C9.18562 26.1452 10.8895 26.1356 12.44 25.5601C14.137 24.9504 15.9896 24.9293 17.7 25.5001C19.8769 26.1768 22.2093 26.1663 24.38 25.4701C26.4922 24.799 28.7578 24.7816 30.88 25.4201C32.2191 25.807 33.6062 26.0023 35 26.0001C36.6217 25.9988 38.2324 25.7354 39.77 25.2201C41.9457 24.5439 44.2841 24.6072 46.42 25.4001C48.0633 25.969 49.8187 26.137 51.54 25.8901C53.5617 25.6007 55.4634 24.7557 57.0331 23.4491C58.6027 22.1425 59.7787 20.4257 60.43 18.4901C60.8093 19.6213 61.0019 20.8069 61 22.0001V22.0001Z" fill="#0096C7"/>
<path d="M43 29H40.172L42.414 26.757C42.7783 26.3798 42.9799 25.8746 42.9753 25.3502C42.9708 24.8258 42.7605 24.3242 42.3896 23.9534C42.0188 23.5825 41.5172 23.3722 40.9928 23.3677C40.4684 23.3631 39.9632 23.5647 39.586 23.929L34.515 29H32V26.485L37.071 21.414C37.4353 21.0368 37.6369 20.5316 37.6323 20.0072C37.6278 19.4828 37.4175 18.9812 37.0466 18.6104C36.6758 18.2395 36.1742 18.0292 35.6498 18.0247C35.1254 18.0201 34.6202 18.2217 34.243 18.586L32 20.828V18C32 17.4696 31.7893 16.9609 31.4142 16.5858C31.0391 16.2107 30.5304 16 30 16C29.4696 16 28.9609 16.2107 28.5858 16.5858C28.2107 16.9609 28 17.4696 28 18V20.828L25.757 18.586C25.3798 18.2217 24.8746 18.0201 24.3502 18.0247C23.8258 18.0292 23.3242 18.2395 22.9534 18.6104C22.5825 18.9812 22.3722 19.4828 22.3677 20.0072C22.3631 20.5316 22.5647 21.0368 22.929 21.414L28 26.485V29H25.485L20.414 23.929C20.0368 23.5647 19.5316 23.3631 19.0072 23.3677C18.4828 23.3722 17.9812 23.5825 17.6104 23.9534C17.2395 24.3242 17.0292 24.8258 17.0247 25.3502C17.0201 25.8746 17.2217 26.3798 17.586 26.757L19.828 29H17C16.4696 29 15.9609 29.2107 15.5858 29.5858C15.2107 29.9609 15 30.4696 15 31C15 31.5304 15.2107 32.0391 15.5858 32.4142C15.9609 32.7893 16.4696 33 17 33H19.828L17.586 35.243C17.2217 35.6202 17.0201 36.1254 17.0247 36.6498C17.0292 37.1742 17.2395 37.6758 17.6104 38.0466C17.9812 38.4175 18.4828 38.6278 19.0072 38.6323C19.5316 38.6369 20.0368 38.4353 20.414 38.071L25.485 33H28V35.515L22.929 40.586C22.5647 40.9632 22.3631 41.4684 22.3677 41.9928C22.3722 42.5172 22.5825 43.0188 22.9534 43.3896C23.3242 43.7605 23.8258 43.9708 24.3502 43.9753C24.8746 43.9799 25.3798 43.7783 25.757 43.414L28 41.172V44C28 44.5304 28.2107 45.0391 28.5858 45.4142C28.9609 45.7893 29.4696 46 30 46C30.5304 46 31.0391 45.7893 31.4142 45.4142C31.7893 45.0391 32 44.5304 32 44V41.172L34.243 43.414C34.6202 43.7783 35.1254 43.9799 35.6498 43.9753C36.1742 43.9708 36.6758 43.7605 37.0466 43.3896C37.4175 43.0188 37.6278 42.5172 37.6323 41.9928C37.6369 41.4684 37.4353 40.9632 37.071 40.586L32 35.515V33H34.515L39.586 38.071C39.9632 38.4353 40.4684 38.6369 40.9928 38.6323C41.5172 38.6278 42.0188 38.4175 42.3896 38.0466C42.7605 37.6758 42.9708 37.1742 42.9753 36.6498C42.9799 36.1254 42.7783 35.6202 42.414 35.243L40.172 33H43C43.5304 33 44.0391 32.7893 44.4142 32.4142C44.7893 32.0391 45 31.5304 45 31C45 30.4696 44.7893 29.9609 44.4142 29.5858C44.0391 29.2107 43.5304 29 43 29Z" fill="#ADE8F4"/>
<path d="M43 33H40.17L42.41 35.24C42.6111 35.4216 42.7732 35.6421 42.8865 35.8882C42.9997 36.1343 43.0618 36.4009 43.069 36.6717C43.0761 36.9425 43.0282 37.212 42.928 37.4637C42.8279 37.7155 42.6776 37.9442 42.4864 38.1361C42.2952 38.3281 42.0669 38.4791 41.8155 38.5801C41.5642 38.6812 41.2949 38.7301 41.024 38.7239C40.7532 38.7177 40.4864 38.6566 40.2399 38.5442C39.9934 38.4318 39.7723 38.2704 39.59 38.07L34.51 33H32V35.51L37.07 40.59C37.4141 40.9711 37.5984 41.4698 37.5849 41.9831C37.5713 42.4963 37.361 42.9846 36.9973 43.347C36.6336 43.7094 36.1445 43.9181 35.6312 43.9298C35.118 43.9415 34.6198 43.7554 34.24 43.41L32 41.17V44C32 44.5304 31.7893 45.0391 31.4142 45.4142C31.0391 45.7893 30.5304 46 30 46C29.4696 46 28.9609 45.7893 28.5858 45.4142C28.2107 45.0391 28 44.5304 28 44V41.17L25.76 43.41C25.5784 43.6111 25.3579 43.7732 25.1118 43.8865C24.8657 43.9997 24.5991 44.0618 24.3283 44.069C24.0575 44.0761 23.788 44.0282 23.5363 43.928C23.2845 43.8279 23.0558 43.6776 22.8639 43.4864C22.672 43.2952 22.5209 43.0669 22.4199 42.8155C22.3188 42.5642 22.2699 42.2949 22.2761 42.024C22.2823 41.7532 22.3434 41.4864 22.4558 41.2399C22.5682 40.9934 22.7296 40.7723 22.93 40.59L28 35.51V33H25.49L20.41 38.07C20.0289 38.4141 19.5302 38.5984 19.0169 38.5849C18.5037 38.5713 18.0153 38.361 17.653 37.9973C17.2906 37.6336 17.0819 37.1445 17.0702 36.6312C17.0585 36.118 17.2446 35.6198 17.59 35.24L19.83 33H17C16.4696 33 15.9609 32.7893 15.5858 32.4142C15.2107 32.0391 15 31.5304 15 31C15 30.4696 15.2107 29.9609 15.5858 29.5858C15.9609 29.2107 16.4696 29 17 29H19.83L17.59 26.76C17.3889 26.5784 17.2268 26.3579 17.1135 26.1118C17.0003 25.8657 16.9382 25.5991 16.931 25.3283C16.9239 25.0575 16.9718 24.788 17.072 24.5363C17.1721 24.2845 17.3224 24.0558 17.5136 23.8639C17.7048 23.672 17.9331 23.5209 18.1845 23.4199C18.4358 23.3188 18.7051 23.2699 18.976 23.2761C19.2468 23.2823 19.5136 23.3434 19.7601 23.4558C20.0066 23.5682 20.2277 23.7296 20.41 23.93L25.49 29H28V26.49L22.93 21.41C22.7296 21.2277 22.5682 21.0066 22.4558 20.7601C22.3434 20.5136 22.2823 20.2468 22.2761 19.976C22.2699 19.7051 22.3188 19.4358 22.4199 19.1845C22.5209 18.9331 22.672 18.7048 22.8639 18.5136C23.0558 18.3224 23.2845 18.1721 23.5363 18.072C23.788 17.9718 24.0575 17.9239 24.3283 17.931C24.5991 17.9382 24.8657 18.0003 25.1118 18.1135C25.3579 18.2268 25.5784 18.3889 25.76 18.59L28 20.83V18C28.0016 17.4701 28.2128 16.9623 28.5875 16.5875C28.9623 16.2128 29.4701 16.0016 30 16V28C30 28.7956 30.3161 29.5587 30.8787 30.1213C31.4413 30.6839 32.2044 31 33 31H45C44.9984 31.5299 44.7872 32.0377 44.4125 32.4125C44.0377 32.7872 43.5299 32.9984 43 33Z" fill="#48CAE4"/>
<path d="M30 34V46C29.4701 45.9984 28.9623 45.7872 28.5875 45.4125C28.2128 45.0377 28.0016 44.5299 28 44V41.17L25.76 43.41C25.5784 43.6111 25.3579 43.7732 25.1118 43.8865C24.8657 43.9997 24.5991 44.0618 24.3283 44.069C24.0575 44.0761 23.788 44.0282 23.5363 43.928C23.2845 43.8279 23.0558 43.6776 22.8639 43.4864C22.672 43.2952 22.5209 43.0669 22.4199 42.8155C22.3188 42.5642 22.2699 42.2949 22.2761 42.024C22.2823 41.7532 22.3434 41.4864 22.4558 41.2399C22.5682 40.9934 22.7296 40.7723 22.93 40.59L28 35.51V33H25.49L20.41 38.07C20.0289 38.4141 19.5302 38.5984 19.0169 38.5849C18.5037 38.5713 18.0153 38.361 17.653 37.9973C17.2906 37.6336 17.0819 37.1445 17.0702 36.6312C17.0585 36.118 17.2446 35.6198 17.59 35.24L19.83 33H17C16.4701 32.9984 15.9623 32.7872 15.5875 32.4125C15.2128 32.0377 15.0016 31.5299 15 31H27C27.7956 31 28.5587 31.3161 29.1213 31.8787C29.6839 32.4413 30 33.2044 30 34Z" fill="#00B4D8"/>
<path d="M57 43H56.5L56.8 42.6C56.8788 42.4949 56.9361 42.3754 56.9687 42.2482C57.0013 42.121 57.0085 41.9886 56.9899 41.8586C56.9714 41.7286 56.9274 41.6035 56.8605 41.4905C56.7936 41.3775 56.7051 41.2788 56.6 41.2C56.4949 41.1212 56.3754 41.0639 56.2482 41.0313C56.121 40.9987 55.9886 40.9915 55.8586 41.0101C55.7286 41.0286 55.6035 41.0726 55.4905 41.1395C55.3775 41.2064 55.2788 41.2949 55.2 41.4L54 43H53V42L54.6 40.8C54.8122 40.6409 54.9524 40.404 54.9899 40.1414C55.0275 39.8789 54.9591 39.6122 54.8 39.4C54.6409 39.1878 54.404 39.0476 54.1414 39.0101C53.8789 38.9725 53.6122 39.0409 53.4 39.2L53 39.5V39C53 38.7348 52.8946 38.4804 52.7071 38.2929C52.5196 38.1054 52.2652 38 52 38C51.7348 38 51.4804 38.1054 51.2929 38.2929C51.1054 38.4804 51 38.7348 51 39V39.5L50.6 39.2C50.4949 39.1212 50.3754 39.0639 50.2482 39.0313C50.121 38.9987 49.9886 38.9915 49.8586 39.0101C49.7286 39.0286 49.6035 39.0726 49.4905 39.1395C49.3775 39.2064 49.2788 39.2949 49.2 39.4C49.1212 39.5051 49.0639 39.6246 49.0313 39.7518C48.9987 39.879 48.9915 40.0114 49.0101 40.1414C49.0286 40.2714 49.0726 40.3965 49.1395 40.5095C49.2064 40.6225 49.2949 40.7212 49.4 40.8L51 42V43H50L48.8 41.4C48.7212 41.2949 48.6225 41.2064 48.5095 41.1395C48.3965 41.0726 48.2714 41.0286 48.1414 41.0101C48.0114 40.9915 47.879 40.9987 47.7518 41.0313C47.6246 41.0639 47.5051 41.1212 47.4 41.2C47.2949 41.2788 47.2064 41.3775 47.1395 41.4905C47.0726 41.6035 47.0286 41.7286 47.0101 41.8586C46.9915 41.9886 46.9987 42.121 47.0313 42.2482C47.0639 42.3754 47.1212 42.4949 47.2 42.6L47.5 43H47C46.7348 43 46.4804 43.1054 46.2929 43.2929C46.1054 43.4804 46 43.7348 46 44C46 44.2652 46.1054 44.5196 46.2929 44.7071C46.4804 44.8946 46.7348 45 47 45H47.5L47.2 45.4C47.0409 45.6122 46.9725 45.8789 47.0101 46.1414C47.0476 46.404 47.1878 46.6409 47.4 46.8C47.6122 46.9591 47.8789 47.0275 48.1414 46.9899C48.404 46.9524 48.6409 46.8122 48.8 46.6L50 45H51V46L49.4 47.2C49.2949 47.2788 49.2064 47.3775 49.1395 47.4905C49.0726 47.6035 49.0286 47.7286 49.0101 47.8586C48.9915 47.9886 48.9987 48.121 49.0313 48.2482C49.0639 48.3754 49.1212 48.4949 49.2 48.6C49.2788 48.7051 49.3775 48.7936 49.4905 48.8605C49.6035 48.9274 49.7286 48.9714 49.8586 48.9899C49.9886 49.0085 50.121 49.0013 50.2482 48.9687C50.3754 48.9361 50.4949 48.8788 50.6 48.8L51 48.5V49C51 49.2652 51.1054 49.5196 51.2929 49.7071C51.4804 49.8946 51.7348 50 52 50C52.2652 50 52.5196 49.8946 52.7071 49.7071C52.8946 49.5196 53 49.2652 53 49V48.5L53.4 48.8C53.6122 48.9591 53.8789 49.0275 54.1414 48.9899C54.404 48.9524 54.6409 48.8122 54.8 48.6C54.9591 48.3878 55.0275 48.1211 54.9899 47.8586C54.9524 47.596 54.8122 47.3591 54.6 47.2L53 46V45H54L55.2 46.6C55.2788 46.7051 55.3775 46.7936 55.4905 46.8605C55.6035 46.9274 55.7286 46.9714 55.8586 46.9899C55.9886 47.0085 56.121 47.0013 56.2482 46.9687C56.3754 46.9361 56.4949 46.8788 56.6 46.8C56.7051 46.7212 56.7936 46.6225 56.8605 46.5095C56.9274 46.3965 56.9714 46.2714 56.9899 46.1414C57.0085 46.0114 57.0013 45.879 56.9687 45.7518C56.9361 45.6246 56.8788 45.5051 56.8 45.4L56.5 45H57C57.2652 45 57.5196 44.8946 57.7071 44.7071C57.8946 44.5196 58 44.2652 58 44C58 43.7348 57.8946 43.4804 57.7071 43.2929C57.5196 43.1054 57.2652 43 57 43Z" fill="#ADE8F4"/>
<path d="M17 45H16.5L16.8 44.6C16.9591 44.3878 17.0275 44.1211 16.99 43.8586C16.9524 43.596 16.8122 43.3591 16.6 43.2C16.3878 43.0409 16.1211 42.9725 15.8586 43.0101C15.596 43.0476 15.3591 43.1878 15.2 43.4L14 45H13V44L14.6 42.8C14.7051 42.7212 14.7936 42.6225 14.8605 42.5095C14.9274 42.3965 14.9714 42.2714 14.9899 42.1414C15.0085 42.0114 15.0013 41.879 14.9687 41.7518C14.9361 41.6246 14.8788 41.5051 14.8 41.4C14.7212 41.2949 14.6225 41.2064 14.5095 41.1395C14.3965 41.0726 14.2714 41.0286 14.1414 41.0101C14.0114 40.9915 13.879 40.9987 13.7518 41.0313C13.6246 41.0639 13.5051 41.1212 13.4 41.2L13 41.5V41C13 40.7348 12.8946 40.4804 12.7071 40.2929C12.5196 40.1054 12.2652 40 12 40C11.7348 40 11.4804 40.1054 11.2929 40.2929C11.1054 40.4804 11 40.7348 11 41V41.5L10.6 41.2C10.3878 41.0409 10.1211 40.9725 9.85858 41.0101C9.59603 41.0476 9.35913 41.1878 9.2 41.4C9.04087 41.6122 8.97254 41.8789 9.01005 42.1414C9.04756 42.404 9.18783 42.6409 9.4 42.8L11 44V45H10L8.8 43.4C8.64087 43.1878 8.40397 43.0476 8.14142 43.0101C7.87887 42.9725 7.61217 43.0409 7.4 43.2C7.18783 43.3591 7.04756 43.596 7.01005 43.8586C6.97254 44.1211 7.04087 44.3878 7.2 44.6L7.5 45H7C6.73478 45 6.48043 45.1054 6.29289 45.2929C6.10536 45.4804 6 45.7348 6 46C6 46.2652 6.10536 46.5196 6.29289 46.7071C6.48043 46.8946 6.73478 47 7 47H7.5L7.2 47.4C7.12121 47.5051 7.06388 47.6246 7.03129 47.7518C6.99869 47.879 6.99148 48.0114 7.01005 48.1414C7.02862 48.2714 7.07262 48.3965 7.13953 48.5095C7.20643 48.6225 7.29494 48.7212 7.4 48.8C7.50506 48.8788 7.62461 48.9361 7.75182 48.9687C7.87903 49.0013 8.01142 49.0085 8.14142 48.9899C8.27142 48.9714 8.39649 48.9274 8.50949 48.8605C8.62249 48.7936 8.72121 48.7051 8.8 48.6L10 47H11V48L9.4 49.2C9.18783 49.3591 9.04756 49.596 9.01005 49.8586C8.97254 50.1211 9.04087 50.3878 9.2 50.6C9.35913 50.8122 9.59603 50.9524 9.85858 50.9899C10.1211 51.0275 10.3878 50.9591 10.6 50.8L11 50.5V51C11 51.2652 11.1054 51.5196 11.2929 51.7071C11.4804 51.8946 11.7348 52 12 52C12.2652 52 12.5196 51.8946 12.7071 51.7071C12.8946 51.5196 13 51.2652 13 51V50.5L13.4 50.8C13.5051 50.8788 13.6246 50.9361 13.7518 50.9687C13.879 51.0013 14.0114 51.0085 14.1414 50.9899C14.2714 50.9714 14.3965 50.9274 14.5095 50.8605C14.6225 50.7936 14.7212 50.7051 14.8 50.6C14.8788 50.4949 14.9361 50.3754 14.9687 50.2482C15.0013 50.121 15.0085 49.9886 14.9899 49.8586C14.9714 49.7286 14.9274 49.6035 14.8605 49.4905C14.7936 49.3775 14.7051 49.2788 14.6 49.2L13 48V47H14L15.2 48.6C15.3591 48.8122 15.596 48.9524 15.8586 48.9899C16.1211 49.0275 16.3878 48.9591 16.6 48.8C16.8122 48.6409 16.9524 48.404 16.99 48.1414C17.0275 47.8789 16.9591 47.6122 16.8 47.4L16.5 47H17C17.2652 47 17.5196 46.8946 17.7071 46.7071C17.8946 46.5196 18 46.2652 18 46C18 45.7348 17.8946 45.4804 17.7071 45.2929C17.5196 45.1054 17.2652 45 17 45Z" fill="#ADE8F4"/>
<path d="M44.464 49C44.3314 48.7703 44.113 48.6027 43.8568 48.5341C43.6007 48.4655 43.3277 48.5014 43.098 48.634L41.998 49.268V48C41.998 47.7348 41.8927 47.4804 41.7051 47.2929C41.5176 47.1054 41.2633 47 40.998 47C40.7328 47 40.4785 47.1054 40.2909 47.2929C40.1034 47.4804 39.998 47.7348 39.998 48V49.268L38.898 48.634C38.6685 48.5035 38.3966 48.4691 38.1418 48.5382C37.8869 48.6074 37.6698 48.7746 37.5378 49.0033C37.4057 49.232 37.3695 49.5036 37.437 49.7589C37.5045 50.0142 37.6702 50.2325 37.898 50.366L39 51L37.9 51.634C37.7854 51.6992 37.6848 51.7864 37.604 51.8906C37.5232 51.9949 37.4638 52.114 37.4292 52.2413C37.3947 52.3686 37.3856 52.5014 37.4026 52.6322C37.4196 52.763 37.4623 52.8891 37.5283 53.0033C37.5942 53.1175 37.6821 53.2176 37.7869 53.2977C37.8916 53.3778 38.0112 53.4364 38.1387 53.4701C38.2662 53.5038 38.3991 53.512 38.5298 53.4941C38.6604 53.4762 38.7863 53.4327 38.9 53.366L40 52.732V54C40 54.2652 40.1054 54.5196 40.2929 54.7071C40.4805 54.8946 40.7348 55 41 55C41.2652 55 41.5196 54.8946 41.7071 54.7071C41.8947 54.5196 42 54.2652 42 54V52.732L43.1 53.366C43.2138 53.4327 43.3396 53.4762 43.4703 53.4941C43.601 53.512 43.7339 53.5038 43.8614 53.4701C43.9889 53.4364 44.1085 53.3778 44.2132 53.2977C44.318 53.2176 44.4059 53.1175 44.4718 53.0033C44.5377 52.8891 44.5804 52.763 44.5974 52.6322C44.6144 52.5014 44.6054 52.3686 44.5708 52.2413C44.5363 52.114 44.4769 51.9949 44.3961 51.8906C44.3153 51.7864 44.2147 51.6992 44.1 51.634L43 51L44.1 50.366C44.3294 50.2331 44.4965 50.0145 44.5648 49.7583C44.633 49.5022 44.5968 49.2294 44.464 49V49Z" fill="#ADE8F4"/>
<path d="M46.536 21C46.6686 21.2297 46.8871 21.3973 47.1432 21.4659C47.3994 21.5345 47.6724 21.4986 47.902 21.366L49.002 20.732V22C49.002 22.2652 49.1074 22.5196 49.2949 22.7071C49.4825 22.8946 49.7368 23 50.002 23C50.2672 23 50.5216 22.8946 50.7091 22.7071C50.8967 22.5196 51.002 22.2652 51.002 22V20.732L52.102 21.366C52.3316 21.4965 52.6035 21.5309 52.8583 21.4617C53.1131 21.3926 53.3303 21.2254 53.4623 20.9967C53.5943 20.768 53.6306 20.4964 53.5631 20.2411C53.4956 19.9858 53.3298 19.7676 53.102 19.634L52 19L53.1 18.366C53.3278 18.2324 53.4936 18.0142 53.5611 17.7589C53.6286 17.5036 53.5923 17.232 53.4603 17.0033C53.3283 16.7746 53.1111 16.6074 52.8563 16.5383C52.6015 16.4691 52.3296 16.5035 52.1 16.634L51 17.268V16C51 15.7348 50.8947 15.4804 50.7071 15.2929C50.5196 15.1054 50.2652 15 50 15C49.7348 15 49.4805 15.1054 49.2929 15.2929C49.1054 15.4804 49 15.7348 49 16V17.268L47.9 16.634C47.7863 16.5673 47.6604 16.5238 47.5298 16.5059C47.3991 16.488 47.2662 16.4962 47.1387 16.5299C47.0112 16.5636 46.8916 16.6222 46.7869 16.7023C46.6821 16.7824 46.5942 16.8825 46.5283 16.9967C46.4623 17.1109 46.4196 17.237 46.4026 17.3678C46.3856 17.4986 46.3947 17.6314 46.4292 17.7587C46.4638 17.886 46.5232 18.0051 46.604 18.1094C46.6848 18.2136 46.7854 18.3008 46.9 18.366L48 19L46.9 19.634C46.6707 19.7669 46.5035 19.9855 46.4353 20.2417C46.367 20.4978 46.4033 20.7706 46.536 21V21Z" fill="#ADE8F4"/>
<path d="M27.464 52C27.3314 51.7703 27.113 51.6027 26.8568 51.5341C26.6006 51.4655 26.3277 51.5014 26.098 51.634L24.998 52.268V51C24.998 50.7348 24.8926 50.4804 24.7051 50.2929C24.5176 50.1054 24.2632 50 23.998 50C23.7328 50 23.4784 50.1054 23.2909 50.2929C23.1034 50.4804 22.998 50.7348 22.998 51V52.268L21.898 51.634C21.6684 51.5035 21.3966 51.4691 21.1417 51.5382C20.8869 51.6074 20.6698 51.7746 20.5377 52.0033C20.4057 52.232 20.3695 52.5036 20.437 52.7589C20.5045 53.0142 20.6702 53.2325 20.898 53.366L22 54L20.9 54.634C20.7854 54.6992 20.6847 54.7864 20.6039 54.8906C20.5231 54.9949 20.4637 55.114 20.4292 55.2413C20.3946 55.3686 20.3856 55.5014 20.4026 55.6322C20.4196 55.763 20.4623 55.8891 20.5282 56.0033C20.5942 56.1175 20.6821 56.2176 20.7868 56.2977C20.8916 56.3778 21.0112 56.4364 21.1387 56.4701C21.2662 56.5038 21.3991 56.512 21.5297 56.4941C21.6604 56.4762 21.7862 56.4327 21.9 56.366L23 55.732V57C23 57.2652 23.1054 57.5196 23.2929 57.7071C23.4804 57.8946 23.7348 58 24 58C24.2652 58 24.5196 57.8946 24.7071 57.7071C24.8946 57.5196 25 57.2652 25 57V55.732L26.1 56.366C26.2138 56.4327 26.3396 56.4762 26.4703 56.4941C26.6009 56.512 26.7338 56.5038 26.8613 56.4701C26.9888 56.4364 27.1084 56.3778 27.2132 56.2977C27.3179 56.2176 27.4058 56.1175 27.4718 56.0033C27.5377 55.8891 27.5804 55.763 27.5974 55.6322C27.6144 55.5014 27.6054 55.3686 27.5708 55.2413C27.5363 55.114 27.4769 54.9949 27.3961 54.8906C27.3153 54.7864 27.2146 54.6992 27.1 54.634L26 54L27.1 53.366C27.3293 53.2331 27.4965 53.0145 27.5648 52.7583C27.633 52.5022 27.5968 52.2294 27.464 52Z" fill="#ADE8F4"/>
</svg>
