<svg xmlns="http://www.w3.org/2000/svg" xmlns:xlink="http://www.w3.org/1999/xlink" viewBox="0 0 64 64"><defs><style>.cls-1{fill:url(#linear-gradient);}.cls-2{fill:url(#linear-gradient-2);}.cls-3{fill:url(#linear-gradient-3);}.cls-4{fill:url(#linear-gradient-4);}.cls-5{fill:url(#linear-gradient-5);}.cls-6{fill:url(#linear-gradient-6);}.cls-7{fill:url(#linear-gradient-7);}.cls-8{fill:url(#linear-gradient-8);}</style><linearGradient id="linear-gradient" x1="26.03" y1="16.1" x2="36.04" y2="16.1" gradientUnits="userSpaceOnUse"><stop offset="0" stop-color="#9f2fff"/><stop offset="1" stop-color="#0bb1d3"/></linearGradient><linearGradient id="linear-gradient-2" x1="22.6" y1="19.08" x2="25.11" y2="19.08" xlink:href="#linear-gradient"/><linearGradient id="linear-gradient-3" x1="9.07" y1="26.1" x2="20.03" y2="26.1" xlink:href="#linear-gradient"/><linearGradient id="linear-gradient-4" x1="7.25" y1="31.58" x2="9.42" y2="31.58" xlink:href="#linear-gradient"/><linearGradient id="linear-gradient-5" x1="4.19" y1="27.81" x2="59.8" y2="27.81" xlink:href="#linear-gradient"/><linearGradient id="linear-gradient-6" x1="21" y1="38.27" x2="35.95" y2="38.27" xlink:href="#linear-gradient"/><linearGradient id="linear-gradient-7" x1="21.03" y1="49.27" x2="40.95" y2="49.27" xlink:href="#linear-gradient"/><linearGradient id="linear-gradient-8" x1="21" y1="41.27" x2="43.95" y2="41.27" xlink:href="#linear-gradient"/></defs><g id="_54.cloud" data-name="54.cloud"><path class="cls-1" d="M34.79,16.9A1,1,0,0,0,35.33,15a12.09,12.09,0,0,0-8.76.82A1,1,0,0,0,27,17.69,11.28,11.28,0,0,1,34.79,16.9Z"/><path class="cls-2" d="M23.4,18.09c-1.91,1.44,0,3.42,1.41,1.42C25.74,18.6,24.3,17.16,23.4,18.09Z"/><path class="cls-3" d="M19.45,24.5A8.69,8.69,0,0,0,9.3,26.8a1,1,0,0,0,.12,1.41,1,1,0,0,0,1.41-.12,6.69,6.69,0,0,1,7.8-1.77A1,1,0,0,0,19.45,24.5Z"/><path class="cls-4" d="M8.64,29.79C7.2,29.57,7.3,31.43,7.25,32.4a1,1,0,0,0,1,1c1.31,0,.9-1.56,1.15-2.42A1,1,0,0,0,8.64,29.79Z"/><path class="cls-5" d="M46.61,20.57C41.1,8.2,22.91,8.2,17.39,20.56c-16.64-1.2-18,23-1.36,23.76a1,1,0,0,0,0-2C2.91,41.9,2.92,22.89,16,22.47a10,10,0,0,1,9.16,6.11A1,1,0,1,0,27,27.81,12,12,0,0,0,19.4,21c4.9-10.23,20.31-10.23,25.2,0A12,12,0,0,0,37,27.81a1,1,0,0,0,1.85.77A10,10,0,0,1,48,22.47c13.12.42,13.12,19.44,0,19.85a1,1,0,0,0,0,2C64.56,43.66,63.31,19.34,46.61,20.57Z"/><path class="cls-6" d="M32.5,39.77H22a1,1,0,0,0,0,2H32.5c4.6-.08,4.6-6.91,0-7a3.45,3.45,0,0,0-2.1.71,1,1,0,0,0,1.2,1.59A1.49,1.49,0,1,1,32.5,39.77Z"/><path class="cls-7" d="M37.5,45.77H22a1,1,0,0,0,0,2H37.5a1.5,1.5,0,0,1,0,3c-.83,0-1.57-1-2.3-.1-.85,1.36,1.23,2.13,2.3,2.1C42.1,52.69,42.1,45.86,37.5,45.77Z"/><path class="cls-8" d="M40.5,37.77a3.45,3.45,0,0,0-2.1.71,1,1,0,0,0,1.2,1.59,1.49,1.49,0,1,1,.9,2.7H22a1,1,0,0,0,0,2H40.5C45.1,44.69,45.1,37.86,40.5,37.77Z"/></g></svg>