<svg id="Line_gradient" data-name="Line gradient" xmlns="http://www.w3.org/2000/svg" xmlns:xlink="http://www.w3.org/1999/xlink" viewBox="0 0 64 64"><defs><style>.cls-1{fill:url(#linear-gradient);}</style><linearGradient id="linear-gradient" x1="4" y1="32" x2="60" y2="32" gradientUnits="userSpaceOnUse"><stop offset="0" stop-color="#6fadb5" id="id_102"></stop><stop offset="1" stop-color="#226ebf" id="id_103"></stop></linearGradient></defs><title>1</title><path class="cls-1" d="M39.5,27.12a.99654.99654,0,0,0-1,1,6.51927,6.51927,0,0,1-4.29,6.11.99984.99984,0,0,0,.34,1.94,1.01669,1.01669,0,0,0,.34-.06,8.527,8.527,0,0,0,5.61-7.99A.99654.99654,0,0,0,39.5,27.12Zm0,0a.99654.99654,0,0,0-1,1,6.51927,6.51927,0,0,1-4.29,6.11.99984.99984,0,0,0,.34,1.94,1.01669,1.01669,0,0,0,.34-.06,8.527,8.527,0,0,0,5.61-7.99A.99654.99654,0,0,0,39.5,27.12ZM32.75,4.97a.99726.99726,0,0,0-1.5,0C30.75,5.54,19,18.93,19,28.12a13,13,0,0,0,26,0C45,18.84,33.25,5.53,32.75,4.97ZM32,39.12a11.013,11.013,0,0,1-11-11c0-7.18,8.41-17.84,11-20.95,2.59,3.1,11,13.71,11,20.95A11.013,11.013,0,0,1,32,39.12Zm7.5-12a.99654.99654,0,0,0-1,1,6.51927,6.51927,0,0,1-4.29,6.11.99984.99984,0,0,0,.34,1.94,1.01669,1.01669,0,0,0,.34-.06,8.527,8.527,0,0,0,5.61-7.99A.99654.99654,0,0,0,39.5,27.12Zm1.68,15.11a1,1,0,1,0-.2,1.99C52.03,45.36,58,48.34,58,50.57c0,2.84-9.89,6.8-26,6.8S6,53.41,6,50.57c0-2.23,5.97-5.21,17.02-6.35a1,1,0,1,0-.2-1.99C13.72,43.17,4,45.86,4,50.57c0,5.71,14.43,8.8,28,8.8s28-3.09,28-8.8C60,45.86,50.28,43.17,41.18,42.23Z" id="id_101"></path></svg>