<svg xmlns="http://www.w3.org/2000/svg" viewBox="0 0 64 64"><defs><style>.cls-1{fill:#009ede;}.cls-2{fill:none;}.cls-3{fill:#0083ca;}.cls-4{fill:#fff;}</style></defs><g id="_49.cloud" data-name="49.cloud"><path class="cls-1" d="M24.11,46.68c-3.17,0-4.45,7.62-4.45,8.88a4.45,4.45,0,1,0,8.9,0C28.56,54.3,27.28,46.68,24.11,46.68Z"/><path class="cls-1" d="M39.89,46.68c-3.17,0-4.45,7.62-4.45,8.88a4.45,4.45,0,0,0,8.9,0C44.34,54.3,43.06,46.68,39.89,46.68Z"/><path class="cls-1" d="M32,39.77c-3.17,0-4.45,7.63-4.45,8.89a4.45,4.45,0,0,0,8.9,0C36.45,47.4,35.17,39.77,32,39.77Z"/><path d="M24.11,46.68c-3.17,0-4.45,7.62-4.45,8.88a4.45,4.45,0,1,0,8.9,0C28.56,54.3,27.28,46.68,24.11,46.68Zm0,11.33a2.45,2.45,0,0,1-2.45-2.45c0-2.18,1.61-6.69,2.44-6.89.85.2,2.46,4.7,2.46,6.89A2.45,2.45,0,0,1,24.11,58Z"/><path d="M39.89,46.68c-3.17,0-4.45,7.62-4.45,8.88a4.45,4.45,0,0,0,8.9,0C44.34,54.3,43.06,46.68,39.89,46.68Zm0,11.33a2.45,2.45,0,0,1-2.45-2.45c0-2.19,1.61-6.69,2.44-6.89.85.2,2.46,4.71,2.46,6.89A2.45,2.45,0,0,1,39.89,58Z"/><path d="M32,39.77c-3.17,0-4.45,7.63-4.45,8.89a4.45,4.45,0,0,0,8.9,0C36.45,47.4,35.17,39.77,32,39.77Zm0,11.34a2.45,2.45,0,0,1-2.45-2.45c0-2.19,1.61-6.69,2.44-6.89.85.2,2.46,4.7,2.46,6.89A2.45,2.45,0,0,1,32,51.11Z"/><path class="cls-2" d="M20.19,10.61a16,16,0,0,0-2.54,3.67h.11A15.88,15.88,0,0,1,20.19,10.61Z"/><path class="cls-2" d="M20.61,10.16l.07-.07Z"/><path class="cls-1" d="M15.3,37.47l-.4,0Z"/><path class="cls-1" d="M44.54,14.15l.13.23Z"/><path class="cls-1" d="M14.23,37.32l-.5-.1Z"/><path class="cls-1" d="M13.23,37.09a5.54,5.54,0,0,1-.58-.17Z"/><path class="cls-1" d="M12.34,36.81a12.13,12.13,0,0,1-3.1-1.65C7,27.4,14,19.54,22.1,20.62c3.43-7.71,13.48-11.29,21.18-7.72l.24-.26.29.4A22.32,22.32,0,0,0,41,10a5.36,5.36,0,0,1-.2-2c-7.55-5.17-19.29-2.2-23,6.26h-.11c-.09.17-.18.34-.26.51C3.51,13.36-.46,32.11,12.34,36.81Z"/><path class="cls-3" d="M55,18.52c-2.18-1.09-4.1-2.46-6.75-2.3-.86-.11-1.74.4-2.52,0-.87-1.08-1.26-2.53-2.22-3.59l-.24.26c-7.7-3.57-17.75,0-21.18,7.72C14,19.54,7,27.4,9.24,35.16a12.16,12.16,0,0,0,7.18,2.37H48.26a11.23,11.23,0,0,0,8-19.44A4.54,4.54,0,0,1,55,18.52Z"/><path class="cls-4" d="M35.33,9.2c-1.69-.8-9.95-.62-9.21,2.16a1,1,0,0,0,.9.56,11.29,11.29,0,0,1,7.77-.79A1,1,0,0,0,35.33,9.2Z"/><path class="cls-4" d="M23.4,12.32c-.92.63-1.26,2.15.17,2.28.56,0,.88-.52,1.24-.87C25.74,12.83,24.3,11.39,23.4,12.32Z"/><path class="cls-4" d="M19.45,18.72A8.7,8.7,0,0,0,9.3,21a1,1,0,0,0,1.53,1.29A6.63,6.63,0,0,1,15.9,20c1.3-.32,3.27,1.5,4,.07A1,1,0,0,0,19.45,18.72Z"/><path class="cls-4" d="M8.64,24c-1.43-.22-1.34,1.64-1.39,2.61a1,1,0,0,0,1,1c1.31,0,.9-1.56,1.15-2.42A1,1,0,0,0,8.64,24Z"/><path d="M46.61,14.8c-5.41-12.35-23.8-12.35-29.22,0C.77,13.54-.64,37.84,16,38.55H48C64.53,38,63.3,13.52,46.61,14.8ZM48,36.55H16A9.94,9.94,0,0,1,6.1,26.62c0-10.72,15-13.7,19.09-3.82A1,1,0,0,0,27,22a12,12,0,0,0-7.63-6.84C24.19,5,39.81,5,44.6,15.2A12,12,0,0,0,37,22a1,1,0,0,0,1.85.76c4.1-9.88,19.11-6.9,19.09,3.82A9.94,9.94,0,0,1,48,36.55Z"/></g></svg>