<svg xmlns="http://www.w3.org/2000/svg" viewBox="0 0 64 64"><defs><style>.cls-1{fill:none;}.cls-2{fill:#009ede;}.cls-3{fill:#0083ca;}.cls-4{fill:#fff;}</style></defs><g id="_54.cloud" data-name="54.cloud"><path class="cls-1" d="M20.21,16.4a16.07,16.07,0,0,0-2.54,3.68h.11A15.62,15.62,0,0,1,20.21,16.4Z"/><path class="cls-1" d="M20.63,16l.07-.07Z"/><path class="cls-2" d="M15.32,43.27l-.4-.05Z"/><path class="cls-2" d="M44.55,20l.12.22Z"/><path class="cls-2" d="M14.25,43.12l-.5-.11Z"/><path class="cls-2" d="M13.25,42.89l-.58-.17Z"/><path class="cls-2" d="M12.36,42.6A12.13,12.13,0,0,1,9.26,41C7,33.19,14,25.33,22.12,26.41c3.43-7.71,13.47-11.28,21.17-7.72l.24-.25c.1.13.19.26.28.4A21.64,21.64,0,0,0,41,15.78a5.4,5.4,0,0,1-.21-2c-7.53-5.17-19.28-2.19-23,6.27h-.11c-.09.17-.18.33-.26.5C3.54,19.15-.44,37.91,12.36,42.6Z"/><path class="cls-3" d="M55,24.31c-2.18-1.08-4.1-2.45-6.74-2.3-.87-.1-1.74.41-2.52,0-.87-1.07-1.26-2.52-2.22-3.58l-.24.25c-7.7-3.56-17.74,0-21.17,7.72C14,25.33,7,33.19,9.26,41a12.19,12.19,0,0,0,7.18,2.37H48.27a11.23,11.23,0,0,0,8-19.44A4.15,4.15,0,0,1,55,24.31Z"/><path class="cls-4" d="M34.79,16.9A1,1,0,0,0,35.33,15c-1.69-.8-9.95-.63-9.21,2.16a1,1,0,0,0,.9.55A11.28,11.28,0,0,1,34.79,16.9Z"/><path class="cls-4" d="M23.31,18.19c-.58.48-1.1,1.33-.39,1.94s1.39,0,1.82-.55C25.66,18.66,24.19,17.24,23.31,18.19Z"/><path class="cls-4" d="M19.45,24.5A8.69,8.69,0,0,0,9.3,26.8a1,1,0,0,0,.12,1.41,1,1,0,0,0,1.41-.12,6.67,6.67,0,0,1,5.08-2.35c1.29-.31,3.26,1.5,4,.08A1,1,0,0,0,19.45,24.5Z"/><path class="cls-4" d="M8.64,29.79C7.2,29.57,7.3,31.43,7.25,32.4a1,1,0,0,0,1,1c1.31,0,.9-1.56,1.15-2.42A1,1,0,0,0,8.64,29.79Z"/><path d="M46.61,20.57c-5.41-12.34-23.8-12.34-29.22,0C.77,19.32-.63,43.62,16,44.32a1,1,0,0,0,0-2,9.92,9.92,0,1,1,9.16-13.74A1,1,0,1,0,27,27.81,12,12,0,0,0,19.4,21c4.79-10.21,20.41-10.2,25.2,0A12,12,0,0,0,37,27.81a1,1,0,0,0,1.85.77A9.93,9.93,0,1,1,48,42.32a1,1,0,0,0,0,2C64.54,43.71,63.29,19.29,46.61,20.57Z"/><path d="M32.5,39.77H22a1,1,0,0,0,0,2H32.5a3.5,3.5,0,1,0-2.1-6.29,1,1,0,0,0,1.2,1.59A1.49,1.49,0,1,1,32.5,39.77Z"/><path d="M37.5,45.77H22a1,1,0,0,0,0,2H37.5a1.5,1.5,0,0,1,0,3c-.8,0-1.62-1-2.3-.1-.85,1.36,1.23,2.13,2.3,2.1C42.1,52.69,42.1,45.86,37.5,45.77Z"/><path d="M40.5,37.77c-1.07,0-3.15.75-2.3,2.11a1,1,0,0,0,1.4.19,1.49,1.49,0,1,1,.9,2.7H22a1,1,0,0,0,0,2H40.5C45.1,44.69,45.1,37.86,40.5,37.77Z"/></g></svg>